<svg xmlns="http://www.w3.org/2000/svg" xmlns:xlink="http://www.w3.org/1999/xlink" width="95" height="96" viewBox="0 0 95 96">
  <defs>
    <clipPath id="clip-Icon_Geschenk_SVG">
      <rect width="95" height="96"/>
    </clipPath>
  </defs>
  <g id="Icon_Geschenk_SVG" data-name="Icon Geschenk SVG" clip-path="url(#clip-Icon_Geschenk_SVG)">
    <g id="surprise_gift_" data-name="surprise gift
" transform="translate(-46.479 -402.5)">
      <g id="gift">
        <g id="Gruppe_7031" data-name="Gruppe 7031">
          <line id="Linie_39" data-name="Linie 39" y2="24" transform="translate(86 454)" fill="none" stroke="#fff" stroke-linecap="square" stroke-linejoin="round" stroke-width="2"/>
          <line id="Linie_40" data-name="Linie 40" y2="24" transform="translate(94 454)" fill="none" stroke="#fff" stroke-linecap="square" stroke-linejoin="round" stroke-width="2"/>
          <path id="Pfad_4789" data-name="Pfad 4789" d="M107,452H70v26h40V457" fill="none" stroke="#fff" stroke-linecap="square" stroke-linejoin="round" stroke-width="2"/>
        </g>
        <g id="Gruppe_7033" data-name="Gruppe 7033">
          <line id="Linie_41" data-name="Linie 41" x1="7.188" y2="3.044" transform="translate(108.813 450)" fill="none" stroke="#fff" stroke-linecap="square" stroke-linejoin="round" stroke-width="2"/>
          <line id="Linie_42" data-name="Linie 42" x1="8.126" y2="3.435" transform="translate(111.874 457)" fill="none" stroke="#fff" stroke-linecap="square" stroke-linejoin="round" stroke-width="2"/>
          <path id="Pfad_4790" data-name="Pfad 4790" d="M126.466,472.549l-16.073-38.8a2,2,0,0,0-2.613-1.082l-6.238,2.827,17.6,42.5,6.239-2.827A2,2,0,0,0,126.466,472.549Z" fill="none" stroke="#fff" stroke-linecap="square" stroke-linejoin="round" stroke-width="2"/>
          <g id="Gruppe_7032" data-name="Gruppe 7032">
            <path id="Pfad_4791" data-name="Pfad 4791" d="M118.43,453.148l-3.636-8.777a5.5,5.5,0,0,1,10.163-4.21c1.315,3.176-.437,4.98-2.367,7.678C121.289,449.658,118.43,453.148,118.43,453.148Z" fill="none" stroke="#fff" stroke-linecap="round" stroke-linejoin="round" stroke-width="2"/>
            <path id="Pfad_4792" data-name="Pfad 4792" d="M118.43,453.148s4.518.293,5.634.372c2.23.159,4.6.816,5.551,3.112a4.5,4.5,0,0,1-8.315,3.445Z" fill="none" stroke="#fff" stroke-linecap="square" stroke-linejoin="round" stroke-width="2"/>
          </g>
        </g>
      </g>
      <g id="Gruppe_7038" data-name="Gruppe 7038">
        <g id="Gruppe_7034" data-name="Gruppe 7034">
          <line id="Linie_43" data-name="Linie 43" y2="7" transform="translate(90 435)" fill="none" stroke="#fff" stroke-linecap="round" stroke-linejoin="round" stroke-width="2"/>
          <line id="Linie_44" data-name="Linie 44" y2="1" transform="translate(90 430)" fill="none" stroke="#fff" stroke-linecap="round" stroke-linejoin="round" stroke-width="2"/>
          <line id="Linie_45" data-name="Linie 45" x2="2.679" y2="6.467" transform="translate(80.242 436.941)" fill="none" stroke="#fff" stroke-linecap="round" stroke-linejoin="round" stroke-width="2"/>
          <line id="Linie_46" data-name="Linie 46" x2="0.383" y2="0.924" transform="translate(78.328 432.322)" fill="none" stroke="#fff" stroke-linecap="round" stroke-linejoin="round" stroke-width="2"/>
          <line id="Linie_47" data-name="Linie 47" x2="4.95" y2="4.95" transform="translate(71.969 442.469)" fill="none" stroke="#fff" stroke-linecap="round" stroke-linejoin="round" stroke-width="2"/>
          <line id="Linie_48" data-name="Linie 48" x2="0.707" y2="0.707" transform="translate(68.433 438.933)" fill="none" stroke="#fff" stroke-linecap="round" stroke-linejoin="round" stroke-width="2"/>
        </g>
        <g id="Gruppe_7035" data-name="Gruppe 7035">
          <line id="Linie_49" data-name="Linie 49" y2="1" transform="translate(71 422)" fill="none" stroke="#fff" stroke-linecap="round" stroke-linejoin="round" stroke-width="2"/>
          <line id="Linie_50" data-name="Linie 50" x2="1" transform="translate(73 425)" fill="none" stroke="#fff" stroke-linecap="round" stroke-linejoin="round" stroke-width="2"/>
          <line id="Linie_51" data-name="Linie 51" y2="1" transform="translate(71 427)" fill="none" stroke="#fff" stroke-linecap="round" stroke-linejoin="round" stroke-width="2"/>
          <line id="Linie_52" data-name="Linie 52" x1="1" transform="translate(68 425)" fill="none" stroke="#fff" stroke-linecap="round" stroke-linejoin="round" stroke-width="2"/>
        </g>
        <g id="Gruppe_7036" data-name="Gruppe 7036">
          <line id="Linie_53" data-name="Linie 53" x1="1.414" y2="1.414" transform="translate(103.121 419.465)" fill="none" stroke="#fff" stroke-linecap="round" stroke-linejoin="round" stroke-width="2"/>
          <line id="Linie_54" data-name="Linie 54" x2="1.414" y2="1.414" transform="translate(103.121 425.121)" fill="none" stroke="#fff" stroke-linecap="round" stroke-linejoin="round" stroke-width="2"/>
          <line id="Linie_55" data-name="Linie 55" x1="1.414" y2="1.414" transform="translate(97.465 425.121)" fill="none" stroke="#fff" stroke-linecap="round" stroke-linejoin="round" stroke-width="2"/>
          <line id="Linie_56" data-name="Linie 56" x1="1.414" y1="1.414" transform="translate(97.465 419.465)" fill="none" stroke="#fff" stroke-linecap="round" stroke-linejoin="round" stroke-width="2"/>
        </g>
        <g id="Gruppe_7037" data-name="Gruppe 7037">
          <line id="Linie_57" data-name="Linie 57" y2="2" transform="translate(85 415)" fill="none" stroke="#fff" stroke-linejoin="round" stroke-width="2"/>
          <line id="Linie_58" data-name="Linie 58" x2="2" transform="translate(86 418)" fill="none" stroke="#fff" stroke-linejoin="round" stroke-width="2"/>
          <line id="Linie_59" data-name="Linie 59" y2="2" transform="translate(85 419)" fill="none" stroke="#fff" stroke-linejoin="round" stroke-width="2"/>
          <line id="Linie_60" data-name="Linie 60" x1="2" transform="translate(82 418)" fill="none" stroke="#fff" stroke-linejoin="round" stroke-width="2"/>
        </g>
      </g>
    </g>
  </g>
</svg>
