<svg id="Ebene_1" xmlns="http://www.w3.org/2000/svg" viewBox="0 0 145.3 39.7"><style>.st0{fill:#d00000}.st1{fill:#fff}</style><path class="st0" d="M110.8 0H0v39.7h110.8c-6.1-4.5-10-11.7-10-19.8 0-8.2 3.9-15.4 10-19.9z"/><path class="st1" d="M42.7 12.2l1.7-.2V5.7H34.3V12l1.3.1-.6 5.8c-.1 1.6-.3 3.6-.4 5h-.1c-.2-1.3-.6-3.2-.9-4.6l-1.3-5.1-1.9-7.5h-5.1l-1.9 7.5-1.3 5.1c-.4 1.4-.6 3.3-.9 4.6h-.1c0-1.4-.2-3.4-.4-5l-.7-5.8 1.4-.1V5.7H11.3V12l1.7.2L16.4 34h8.4l2.2-9.2c.3-1.3.6-3.1.8-4.2h.1c.1 1.2.4 3 .7 4.2L31 34h8.4l3.3-21.8zM66.8 27.9l-5-22.2H50.5L45.6 28l-2.3.1V34h8.9l1-5.9h6.1l1 5.9h8.9v-5.9l-2.4-.2zm-12.5-5.5l1.2-7.1c.2-1.4.5-3.1.6-4.3h.1c.1 1.3.4 3 .6 4.3l1.2 7.1h-3.7zM83.3 28h-3.7l9.7-15.9V5.7H71V13h6.2l.5-1.4h3.5l-9.8 16.2V34h18.1v-7.4h-5.7l-.5 1.4z"/><path class="st0" d="M145.2 19.8c0 11-8.9 19.8-19.8 19.8s-19.8-8.9-19.8-19.8c0-11 8.9-19.8 19.8-19.8s19.8 8.9 19.8 19.8z"/><g><path class="st1" d="M111.8 22.5v-5.3h10.8V5.7h5.5v11.5H139v5.3h-10.8V34h-5.5V22.5h-10.9z"/></g></svg>